<?xml version="1.0" encoding="UTF-8" standalone="no"?>
<!-- Created with Inkscape (http://www.inkscape.org/) -->

<svg
   xmlns:wp="http://www.evexiallc.com"
   xmlns:dc="http://purl.org/dc/elements/1.1/"
   xmlns:cc="http://creativecommons.org/ns#"
   xmlns:rdf="http://www.w3.org/1999/02/22-rdf-syntax-ns#"
   xmlns:svg="http://www.w3.org/2000/svg"
   xmlns="http://www.w3.org/2000/svg"
   xmlns:xlink="http://www.w3.org/1999/xlink"
   xmlns:sodipodi="http://sodipodi.sourceforge.net/DTD/sodipodi-0.dtd"
   xmlns:inkscape="http://www.inkscape.org/namespaces/inkscape"
   width="350"
   height="352"
   id="svg4427"
   version="1.1"
   inkscape:version="0.48.2 r9819"
   sodipodi:docname="meterSilver.svg">
  <defs
     id="defs4429">
    <filter
       color-interpolation-filters="sRGB"
       id="filter6097-7"
       inkscape:collect="always">
      <feGaussianBlur
         id="feGaussianBlur6099-1"
         stdDeviation="3.3895704"
         inkscape:collect="always" />
    </filter>
    <linearGradient
       id="linearGradient5929-8">
      <stop
         id="stop5931-4"
         style="stop-color:#f9f9f9;stop-opacity:1"
         offset="0" />
      <stop
         id="stop5933-9"
         style="stop-color:#999999;stop-opacity:1"
         offset="1" />
    </linearGradient>
    <linearGradient
       id="linearGradient5921-6">
      <stop
         id="stop5923-3"
         offset="0"
         style="stop-color:#e6e6e6;stop-opacity:1" />
      <stop
         id="stop5925-7"
         offset="1"
         style="stop-color:#787878;stop-opacity:1;" />
    </linearGradient>
    <linearGradient
       id="linearGradient6443-6">
      <stop
         id="stop6445-6"
         offset="0"
         style="stop-color:#b3b3b3;stop-opacity:1" />
      <stop
         id="stop6447-1"
         offset="1"
         style="stop-color:#f9f9f9;stop-opacity:1" />
    </linearGradient>
    <filter
       color-interpolation-filters="sRGB"
       id="filter5545-0"
       inkscape:collect="always">
      <feGaussianBlur
         id="feGaussianBlur5547-0"
         stdDeviation="1.225"
         inkscape:collect="always" />
    </filter>
    <linearGradient
       inkscape:collect="always"
       xlink:href="#linearGradient5929-8"
       id="linearGradient4920"
       gradientUnits="userSpaceOnUse"
       gradientTransform="matrix(1.1323921,0,0,1.132392,-206.3519,-318.46626)"
       x1="238.98338"
       y1="315.68695"
       x2="431.93286"
       y2="542.92432" />
    <linearGradient
       inkscape:collect="always"
       xlink:href="#linearGradient5921-6"
       id="linearGradient4922"
       gradientUnits="userSpaceOnUse"
       x1="64.270996"
       y1="39.015118"
       x2="282.76547"
       y2="296.33688" />
    <linearGradient
       inkscape:collect="always"
       xlink:href="#linearGradient6443-6"
       id="linearGradient4924"
       gradientUnits="userSpaceOnUse"
       gradientTransform="matrix(1.0676163,0,0,1.0672715,10.216094,9.550874)"
       x1="70.082115"
       y1="36.010365"
       x2="224.23929"
       y2="269.25098" />
    <linearGradient
       inkscape:collect="always"
       xlink:href="#linearGradient5921-6"
       id="linearGradient4926"
       gradientUnits="userSpaceOnUse"
       x1="160.33925"
       y1="156.12717"
       x2="183.40669"
       y2="182.71202" />
  </defs>
  <sodipodi:namedview
     id="base"
     pagecolor="#ffffff"
     bordercolor="#666666"
     borderopacity="1.0"
     inkscape:pageopacity="0.0"
     inkscape:pageshadow="2"
     inkscape:zoom="1.84375"
     inkscape:cx="175"
     inkscape:cy="176"
     inkscape:document-units="px"
     inkscape:current-layer="svg4427"
     showgrid="false"
     fit-margin-top="0"
     fit-margin-left="0"
     fit-margin-right="0"
     fit-margin-bottom="0"
     inkscape:window-width="1600"
     inkscape:window-height="838"
     inkscape:window-x="-8"
     inkscape:window-y="-8"
     inkscape:window-maximized="1" />
  <metadata
     id="metadata4432">
    <rdf:RDF>
      <cc:Work
         rdf:about="">
        <dc:format>image/svg+xml</dc:format>
        <dc:type
           rdf:resource="http://purl.org/dc/dcmitype/StillImage" />
        <dc:title />
      </cc:Work>
    </rdf:RDF>
  </metadata>
  <g
     wp:valueTextId="textValue"
     wp:scaleMin="0"
     wp:scaleMax="100"
     wp:rotationMin="0"
     wp:rotationMax="240"
     wp:slope="2.4"
     wp:offset="0"
     wp:numTicks="11"
     wp:needleId="Needle"
     wp:labelTextId="textLabel"
     wp:centerId="Center"
     wp:type="meter"
     id="wpMeter"
     transform="translate(1.3,0)">
    <path
       transform="matrix(0.98528547,0,0,0.98528559,2.6411419,5.1794718)"
       inkscape:connector-curvature="0"
       d="m 343.09203,174.3865 c 0,93.60041 -75.87811,169.47853 -169.47854,169.47853 -93.600397,0 -169.4785209,-75.87812 -169.4785209,-169.47853 0,-93.60036 75.8781239,-169.4784863 169.4785209,-169.4784863 93.60043,0 169.47854,75.8781263 169.47854,169.4784863 z"
       id="pathShadow"
       style="fill:#999999;fill-opacity:1;stroke:none;filter:url(#filter6097-7)" />
    <path
       style="fill:url(#linearGradient4920);fill-opacity:1;stroke:url(#linearGradient4922);stroke-width:1.04294479;stroke-opacity:1"
       id="pathOuterRing"
       d="m 339.47853,169.99999 c 0,93.60041 -75.87811,169.47853 -169.47854,169.47853 -93.600394,0 -169.47851761,-75.87812 -169.47851761,-169.47853 0,-93.600395 75.87812361,-169.47851761 169.47851761,-169.47851761 93.60043,0 169.47854,75.87812261 169.47854,169.47851761 z"
       inkscape:connector-curvature="0" />
    <path
       inkscape:connector-curvature="0"
       d="m 319.46627,170 a 149.46627,149.41801 0 1 1 -298.932533,0 149.46627,149.41801 0 1 1 298.932533,0 z"
       id="pathBackground"
       style="fill:#f9f9f9;stroke:url(#linearGradient4924);stroke-width:1.06744397;stroke-opacity:1" />
    <g
       style="fill:#000000"
       id="gTicks"
       transform="translate(-162.68704,-261.01902)">
      <rect
         width="4"
         height="12"
         x="-541.74695"
         y="-46.85537"
         transform="matrix(-0.5,-0.8660254,0.8660254,-0.5,0,0)"
         id="rectTick0"
         style="fill:#000000;fill-opacity:1;stroke:none" />
      <rect
         width="4"
         height="12"
         x="-465.7395"
         y="166.44225"
         transform="matrix(-0.10452847,-0.9945219,0.9945219,-0.10452847,0,0)"
         id="rectTick1"
         style="fill:#000000;fill-opacity:1;stroke:none" />
      <rect
         width="4"
         height="12"
         x="-309.5473"
         y="330.38431"
         transform="matrix(0.30901699,-0.95105652,0.95105652,0.30901699,0,0)"
         id="rectTick2"
         style="fill:#000000;fill-opacity:1;stroke:none" />
      <rect
         width="4"
         height="12"
         x="-100.17738"
         y="416.62375"
         transform="matrix(0.6691306,-0.74314483,0.74314483,0.6691306,0,0)"
         id="rectTick3"
         style="fill:#000000;fill-opacity:1;stroke:none" />
      <rect
         width="4"
         height="12"
         x="126.1683"
         y="410.24896"
         transform="matrix(0.91354545,-0.40673665,0.40673665,0.91354545,0,0)"
         id="rectTick4"
         style="fill:#000000;fill-opacity:1;stroke:none" />
      <rect
         width="4"
         height="12"
         x="330.35251"
         y="312.36224"
         id="rectTick5"
         style="fill:#000000;fill-opacity:1;stroke:none" />
      <rect
         width="4"
         height="12"
         x="477.06995"
         y="139.88907"
         transform="matrix(0.91354546,0.40673664,-0.40673664,0.91354546,0,0)"
         id="rectTick6"
         style="fill:#000000;fill-opacity:1;stroke:none" />
      <rect
         width="4"
         height="12"
         x="540.95184"
         y="-77.348381"
         transform="matrix(0.66913061,0.74314482,-0.74314482,0.66913061,0,0)"
         id="rectTick7"
         style="fill:#000000;fill-opacity:1;stroke:none" />
      <rect
         width="4"
         height="12"
         x="510.95242"
         y="-301.78778"
         transform="matrix(0.309017,0.95105651,-0.95105651,0.309017,0,0)"
         id="rectTick8"
         style="fill:#000000;fill-opacity:1;stroke:none" />
      <rect
         width="4"
         height="12"
         x="392.25885"
         y="-494.62149"
         transform="matrix(-0.10452846,0.9945219,-0.9945219,-0.10452846,0,0)"
         id="rectTick9"
         style="fill:#000000;fill-opacity:1;stroke:none" />
      <rect
         width="4"
         height="12"
         x="205.39435"
         y="-622.50684"
         transform="matrix(-0.5,0.86602541,-0.86602541,-0.5,0,0)"
         id="rectTick10"
         style="fill:#000000;fill-opacity:1;stroke:none" />
      <g
         id="gMinor1"
         style="fill:#000000">
        <g
           id="g4277"
           style="fill:#000000">
          <rect
             width="4"
             height="7.9999933"
             x="-531.24896"
             y="11.168299"
             transform="matrix(-0.40673664,-0.91354546,0.91354546,-0.40673664,0,0)"
             id="rect4261"
             style="fill:#000000;fill-opacity:1;stroke:none" />
          <rect
             width="4"
             height="7.9999933"
             x="-514.95245"
             y="65.787758"
             transform="matrix(-0.30901699,-0.95105652,0.95105652,-0.30901699,0,0)"
             id="rect4269"
             style="fill:#000000;fill-opacity:1;stroke:none" />
          <rect
             width="4"
             height="7.9999933"
             x="-493.03592"
             y="118.40456"
             transform="matrix(-0.20791169,-0.9781476,0.9781476,-0.20791169,0,0)"
             id="rect4271"
             style="fill:#000000;fill-opacity:1;stroke:none" />
          <rect
             width="4"
             height="7.9999933"
             x="-493.03592"
             y="118.40456"
             transform="matrix(-0.20791169,-0.9781476,0.9781476,-0.20791169,0,0)"
             id="rect4273"
             style="fill:#000000;fill-opacity:1;stroke:none" />
        </g>
        <rect
           width="4"
           height="7.9999933"
           x="-531.24896"
           y="11.168299"
           transform="matrix(-0.40673664,-0.91354546,0.91354546,-0.40673664,0,0)"
           id="rect4285"
           style="fill:#000000;fill-opacity:1;stroke:none" />
        <rect
           width="4"
           height="7.9999933"
           x="-514.95245"
           y="65.787758"
           transform="matrix(-0.30901699,-0.95105652,0.95105652,-0.30901699,0,0)"
           id="rect4287"
           style="fill:#000000;fill-opacity:1;stroke:none" />
        <rect
           width="4"
           height="7.9999933"
           x="-493.03592"
           y="118.40456"
           transform="matrix(-0.20791169,-0.9781476,0.9781476,-0.20791169,0,0)"
           id="rect4289"
           style="fill:#000000;fill-opacity:1;stroke:none" />
        <rect
           width="4"
           height="7.9999933"
           x="-493.03592"
           y="118.40456"
           transform="matrix(-0.20791169,-0.9781476,0.9781476,-0.20791169,0,0)"
           id="rect4291"
           style="fill:#000000;fill-opacity:1;stroke:none" />
      </g>
      <g
         transform="matrix(0.91354546,0.40673664,-0.40673664,0.91354546,204.18422,-97.886736)"
         id="gMinor2"
         style="fill:#000000">
        <g
           id="g4341"
           style="fill:#000000">
          <rect
             width="4"
             height="7.9999933"
             x="-531.24896"
             y="11.168299"
             transform="matrix(-0.40673664,-0.91354546,0.91354546,-0.40673664,0,0)"
             id="rect4343"
             style="fill:#000000;fill-opacity:1;stroke:none" />
          <rect
             width="4"
             height="7.9999933"
             x="-514.95245"
             y="65.787758"
             transform="matrix(-0.30901699,-0.95105652,0.95105652,-0.30901699,0,0)"
             id="rect4345"
             style="fill:#000000;fill-opacity:1;stroke:none" />
          <rect
             width="4"
             height="7.9999933"
             x="-493.03592"
             y="118.40456"
             transform="matrix(-0.20791169,-0.9781476,0.9781476,-0.20791169,0,0)"
             id="rect4347"
             style="fill:#000000;fill-opacity:1;stroke:none" />
          <rect
             width="4"
             height="7.9999933"
             x="-493.03592"
             y="118.40456"
             transform="matrix(-0.20791169,-0.9781476,0.9781476,-0.20791169,0,0)"
             id="rect4349"
             style="fill:#000000;fill-opacity:1;stroke:none" />
        </g>
        <rect
           width="4"
           height="7.9999933"
           x="-531.24896"
           y="11.168299"
           transform="matrix(-0.40673664,-0.91354546,0.91354546,-0.40673664,0,0)"
           id="rect4351"
           style="fill:#000000;fill-opacity:1;stroke:none" />
        <rect
           width="4"
           height="7.9999933"
           x="-514.95245"
           y="65.787758"
           transform="matrix(-0.30901699,-0.95105652,0.95105652,-0.30901699,0,0)"
           id="rect4353"
           style="fill:#000000;fill-opacity:1;stroke:none" />
        <rect
           width="4"
           height="7.9999933"
           x="-493.03592"
           y="118.40456"
           transform="matrix(-0.20791169,-0.9781476,0.9781476,-0.20791169,0,0)"
           id="rect4355"
           style="fill:#000000;fill-opacity:1;stroke:none" />
        <rect
           width="4"
           height="7.9999933"
           x="-493.03592"
           y="118.40456"
           transform="matrix(-0.20791169,-0.9781476,0.9781476,-0.20791169,0,0)"
           id="rect4357"
           style="fill:#000000;fill-opacity:1;stroke:none" />
      </g>
      <g
         transform="matrix(0.66913061,0.74314482,-0.74314482,0.66913061,430.52991,-104.26152)"
         id="gMinor3"
         style="fill:#000000">
        <g
           id="g4361"
           style="fill:#000000">
          <rect
             width="4"
             height="7.9999933"
             x="-531.24896"
             y="11.168299"
             transform="matrix(-0.40673664,-0.91354546,0.91354546,-0.40673664,0,0)"
             id="rect4363"
             style="fill:#000000;fill-opacity:1;stroke:none" />
          <rect
             width="4"
             height="7.9999933"
             x="-514.95245"
             y="65.787758"
             transform="matrix(-0.30901699,-0.95105652,0.95105652,-0.30901699,0,0)"
             id="rect4365"
             style="fill:#000000;fill-opacity:1;stroke:none" />
          <rect
             width="4"
             height="7.9999933"
             x="-493.03592"
             y="118.40456"
             transform="matrix(-0.20791169,-0.9781476,0.9781476,-0.20791169,0,0)"
             id="rect4367"
             style="fill:#000000;fill-opacity:1;stroke:none" />
          <rect
             width="4"
             height="7.9999933"
             x="-493.03592"
             y="118.40456"
             transform="matrix(-0.20791169,-0.9781476,0.9781476,-0.20791169,0,0)"
             id="rect4369"
             style="fill:#000000;fill-opacity:1;stroke:none" />
        </g>
        <rect
           width="4"
           height="7.9999933"
           x="-531.24896"
           y="11.168299"
           transform="matrix(-0.40673664,-0.91354546,0.91354546,-0.40673664,0,0)"
           id="rect4371"
           style="fill:#000000;fill-opacity:1;stroke:none" />
        <rect
           width="4"
           height="7.9999933"
           x="-514.95245"
           y="65.787758"
           transform="matrix(-0.30901699,-0.95105652,0.95105652,-0.30901699,0,0)"
           id="rect4373"
           style="fill:#000000;fill-opacity:1;stroke:none" />
        <rect
           width="4"
           height="7.9999933"
           x="-493.03592"
           y="118.40456"
           transform="matrix(-0.20791169,-0.9781476,0.9781476,-0.20791169,0,0)"
           id="rect4375"
           style="fill:#000000;fill-opacity:1;stroke:none" />
        <rect
           width="4"
           height="7.9999933"
           x="-493.03592"
           y="118.40456"
           transform="matrix(-0.20791169,-0.9781476,0.9781476,-0.20791169,0,0)"
           id="rect4377"
           style="fill:#000000;fill-opacity:1;stroke:none" />
      </g>
      <g
         transform="matrix(0.309017,0.95105651,-0.95105651,0.309017,639.89984,-18.022084)"
         id="gMinor4"
         style="fill:#000000">
        <g
           id="g4381"
           style="fill:#000000">
          <rect
             width="4"
             height="7.9999933"
             x="-531.24896"
             y="11.168299"
             transform="matrix(-0.40673664,-0.91354546,0.91354546,-0.40673664,0,0)"
             id="rect4383"
             style="fill:#000000;fill-opacity:1;stroke:none" />
          <rect
             width="4"
             height="7.9999933"
             x="-514.95245"
             y="65.787758"
             transform="matrix(-0.30901699,-0.95105652,0.95105652,-0.30901699,0,0)"
             id="rect4385"
             style="fill:#000000;fill-opacity:1;stroke:none" />
          <rect
             width="4"
             height="7.9999933"
             x="-493.03592"
             y="118.40456"
             transform="matrix(-0.20791169,-0.9781476,0.9781476,-0.20791169,0,0)"
             id="rect4387"
             style="fill:#000000;fill-opacity:1;stroke:none" />
          <rect
             width="4"
             height="7.9999933"
             x="-493.03592"
             y="118.40456"
             transform="matrix(-0.20791169,-0.9781476,0.9781476,-0.20791169,0,0)"
             id="rect4389"
             style="fill:#000000;fill-opacity:1;stroke:none" />
        </g>
        <rect
           width="4"
           height="7.9999933"
           x="-531.24896"
           y="11.168299"
           transform="matrix(-0.40673664,-0.91354546,0.91354546,-0.40673664,0,0)"
           id="rect4391"
           style="fill:#000000;fill-opacity:1;stroke:none" />
        <rect
           width="4"
           height="7.9999933"
           x="-514.95245"
           y="65.787758"
           transform="matrix(-0.30901699,-0.95105652,0.95105652,-0.30901699,0,0)"
           id="rect4393"
           style="fill:#000000;fill-opacity:1;stroke:none" />
        <rect
           width="4"
           height="7.9999933"
           x="-493.03592"
           y="118.40456"
           transform="matrix(-0.20791169,-0.9781476,0.9781476,-0.20791169,0,0)"
           id="rect4395"
           style="fill:#000000;fill-opacity:1;stroke:none" />
        <rect
           width="4"
           height="7.9999933"
           x="-493.03592"
           y="118.40456"
           transform="matrix(-0.20791169,-0.9781476,0.9781476,-0.20791169,0,0)"
           id="rect4397"
           style="fill:#000000;fill-opacity:1;stroke:none" />
      </g>
      <g
         transform="matrix(-0.10452846,0.99452189,-0.99452189,-0.10452846,796.09205,145.91998)"
         id="gMinor5"
         style="fill:#000000">
        <g
           id="g4401"
           style="fill:#000000">
          <rect
             width="4"
             height="7.9999933"
             x="-531.24896"
             y="11.168299"
             transform="matrix(-0.40673664,-0.91354546,0.91354546,-0.40673664,0,0)"
             id="rect4403"
             style="fill:#000000;fill-opacity:1;stroke:none" />
          <rect
             width="4"
             height="7.9999933"
             x="-514.95245"
             y="65.787758"
             transform="matrix(-0.30901699,-0.95105652,0.95105652,-0.30901699,0,0)"
             id="rect4405"
             style="fill:#000000;fill-opacity:1;stroke:none" />
          <rect
             width="4"
             height="7.9999933"
             x="-493.03592"
             y="118.40456"
             transform="matrix(-0.20791169,-0.9781476,0.9781476,-0.20791169,0,0)"
             id="rect4407"
             style="fill:#000000;fill-opacity:1;stroke:none" />
          <rect
             width="4"
             height="7.9999933"
             x="-493.03592"
             y="118.40456"
             transform="matrix(-0.20791169,-0.9781476,0.9781476,-0.20791169,0,0)"
             id="rect4409"
             style="fill:#000000;fill-opacity:1;stroke:none" />
        </g>
        <rect
           width="4"
           height="7.9999933"
           x="-531.24896"
           y="11.168299"
           transform="matrix(-0.40673664,-0.91354546,0.91354546,-0.40673664,0,0)"
           id="rect4411"
           style="fill:#000000;fill-opacity:1;stroke:none" />
        <rect
           width="4"
           height="7.9999933"
           x="-514.95245"
           y="65.787758"
           transform="matrix(-0.30901699,-0.95105652,0.95105652,-0.30901699,0,0)"
           id="rect4413"
           style="fill:#000000;fill-opacity:1;stroke:none" />
        <rect
           width="4"
           height="7.9999933"
           x="-493.03592"
           y="118.40456"
           transform="matrix(-0.20791169,-0.9781476,0.9781476,-0.20791169,0,0)"
           id="rect4415"
           style="fill:#000000;fill-opacity:1;stroke:none" />
        <rect
           width="4"
           height="7.9999933"
           x="-493.03592"
           y="118.40456"
           transform="matrix(-0.20791169,-0.9781476,0.9781476,-0.20791169,0,0)"
           id="rect4417"
           style="fill:#000000;fill-opacity:1;stroke:none" />
      </g>
      <g
         transform="matrix(-0.49999999,0.8660254,-0.8660254,-0.49999999,872.09949,359.21761)"
         id="gMinor6"
         style="fill:#000000">
        <g
           id="g4421"
           style="fill:#000000">
          <rect
             width="4"
             height="7.9999933"
             x="-531.24896"
             y="11.168299"
             transform="matrix(-0.40673664,-0.91354546,0.91354546,-0.40673664,0,0)"
             id="rect4423"
             style="fill:#000000;fill-opacity:1;stroke:none" />
          <rect
             width="4"
             height="7.9999933"
             x="-514.95245"
             y="65.787758"
             transform="matrix(-0.30901699,-0.95105652,0.95105652,-0.30901699,0,0)"
             id="rect4425"
             style="fill:#000000;fill-opacity:1;stroke:none" />
          <rect
             width="4"
             height="7.9999933"
             x="-493.03592"
             y="118.40456"
             transform="matrix(-0.20791169,-0.9781476,0.9781476,-0.20791169,0,0)"
             id="rect4427"
             style="fill:#000000;fill-opacity:1;stroke:none" />
          <rect
             width="4"
             height="7.9999933"
             x="-493.03592"
             y="118.40456"
             transform="matrix(-0.20791169,-0.9781476,0.9781476,-0.20791169,0,0)"
             id="rect4429"
             style="fill:#000000;fill-opacity:1;stroke:none" />
        </g>
        <rect
           width="4"
           height="7.9999933"
           x="-531.24896"
           y="11.168299"
           transform="matrix(-0.40673664,-0.91354546,0.91354546,-0.40673664,0,0)"
           id="rect4431"
           style="fill:#000000;fill-opacity:1;stroke:none" />
        <rect
           width="4"
           height="7.9999933"
           x="-514.95245"
           y="65.787758"
           transform="matrix(-0.30901699,-0.95105652,0.95105652,-0.30901699,0,0)"
           id="rect4433"
           style="fill:#000000;fill-opacity:1;stroke:none" />
        <rect
           width="4"
           height="7.9999933"
           x="-493.03592"
           y="118.40456"
           transform="matrix(-0.20791169,-0.9781476,0.9781476,-0.20791169,0,0)"
           id="rect4435"
           style="fill:#000000;fill-opacity:1;stroke:none" />
        <rect
           width="4"
           height="7.9999933"
           x="-493.03592"
           y="118.40456"
           transform="matrix(-0.20791169,-0.9781476,0.9781476,-0.20791169,0,0)"
           id="rect4437"
           style="fill:#000000;fill-opacity:1;stroke:none" />
      </g>
      <g
         transform="matrix(-0.80901698,0.58778525,-0.58778525,-0.80901698,854.77978,584.9897)"
         id="gMinor7"
         style="fill:#000000">
        <g
           id="g4441"
           style="fill:#000000">
          <rect
             width="4"
             height="7.9999933"
             x="-531.24896"
             y="11.168299"
             transform="matrix(-0.40673664,-0.91354546,0.91354546,-0.40673664,0,0)"
             id="rect4443"
             style="fill:#000000;fill-opacity:1;stroke:none" />
          <rect
             width="4"
             height="7.9999933"
             x="-514.95245"
             y="65.787758"
             transform="matrix(-0.30901699,-0.95105652,0.95105652,-0.30901699,0,0)"
             id="rect4445"
             style="fill:#000000;fill-opacity:1;stroke:none" />
          <rect
             width="4"
             height="7.9999933"
             x="-493.03592"
             y="118.40456"
             transform="matrix(-0.20791169,-0.9781476,0.9781476,-0.20791169,0,0)"
             id="rect4447"
             style="fill:#000000;fill-opacity:1;stroke:none" />
          <rect
             width="4"
             height="7.9999933"
             x="-493.03592"
             y="118.40456"
             transform="matrix(-0.20791169,-0.9781476,0.9781476,-0.20791169,0,0)"
             id="rect4449"
             style="fill:#000000;fill-opacity:1;stroke:none" />
        </g>
        <rect
           width="4"
           height="7.9999933"
           x="-531.24896"
           y="11.168299"
           transform="matrix(-0.40673664,-0.91354546,0.91354546,-0.40673664,0,0)"
           id="rect4451"
           style="fill:#000000;fill-opacity:1;stroke:none" />
        <rect
           width="4"
           height="7.9999933"
           x="-514.95245"
           y="65.787758"
           transform="matrix(-0.30901699,-0.95105652,0.95105652,-0.30901699,0,0)"
           id="rect4453"
           style="fill:#000000;fill-opacity:1;stroke:none" />
        <rect
           width="4"
           height="7.9999933"
           x="-493.03592"
           y="118.40456"
           transform="matrix(-0.20791169,-0.9781476,0.9781476,-0.20791169,0,0)"
           id="rect4455"
           style="fill:#000000;fill-opacity:1;stroke:none" />
        <rect
           width="4"
           height="7.9999933"
           x="-493.03592"
           y="118.40456"
           transform="matrix(-0.20791169,-0.9781476,0.9781476,-0.20791169,0,0)"
           id="rect4457"
           style="fill:#000000;fill-opacity:1;stroke:none" />
      </g>
      <g
         transform="matrix(-0.97814759,0.20791169,-0.20791169,-0.97814759,747.12766,784.19821)"
         id="gMinor8"
         style="fill:#000000">
        <g
           id="g4461"
           style="fill:#000000">
          <rect
             width="4"
             height="7.9999933"
             x="-531.24896"
             y="11.168299"
             transform="matrix(-0.40673664,-0.91354546,0.91354546,-0.40673664,0,0)"
             id="rect4463"
             style="fill:#000000;fill-opacity:1;stroke:none" />
          <rect
             width="4"
             height="7.9999933"
             x="-514.95245"
             y="65.787758"
             transform="matrix(-0.30901699,-0.95105652,0.95105652,-0.30901699,0,0)"
             id="rect4465"
             style="fill:#000000;fill-opacity:1;stroke:none" />
          <rect
             width="4"
             height="7.9999933"
             x="-493.03592"
             y="118.40456"
             transform="matrix(-0.20791169,-0.9781476,0.9781476,-0.20791169,0,0)"
             id="rect4467"
             style="fill:#000000;fill-opacity:1;stroke:none" />
          <rect
             width="4"
             height="7.9999933"
             x="-493.03592"
             y="118.40456"
             transform="matrix(-0.20791169,-0.9781476,0.9781476,-0.20791169,0,0)"
             id="rect4469"
             style="fill:#000000;fill-opacity:1;stroke:none" />
        </g>
        <rect
           width="4"
           height="7.9999933"
           x="-531.24896"
           y="11.168299"
           transform="matrix(-0.40673664,-0.91354546,0.91354546,-0.40673664,0,0)"
           id="rect4471"
           style="fill:#000000;fill-opacity:1;stroke:none" />
        <rect
           width="4"
           height="7.9999933"
           x="-514.95245"
           y="65.787758"
           transform="matrix(-0.30901699,-0.95105652,0.95105652,-0.30901699,0,0)"
           id="rect4473"
           style="fill:#000000;fill-opacity:1;stroke:none" />
        <rect
           width="4"
           height="7.9999933"
           x="-493.03592"
           y="118.40456"
           transform="matrix(-0.20791169,-0.9781476,0.9781476,-0.20791169,0,0)"
           id="rect4475"
           style="fill:#000000;fill-opacity:1;stroke:none" />
        <rect
           width="4"
           height="7.9999933"
           x="-493.03592"
           y="118.40456"
           transform="matrix(-0.20791169,-0.9781476,0.9781476,-0.20791169,0,0)"
           id="rect4477"
           style="fill:#000000;fill-opacity:1;stroke:none" />
      </g>
      <g
         transform="matrix(-0.97814759,-0.20791169,0.20791169,-0.97814759,567.75715,922.39817)"
         id="gMinor9"
         style="fill:#000000">
        <g
           id="g4481"
           style="fill:#000000">
          <rect
             width="4"
             height="7.9999933"
             x="-531.24896"
             y="11.168299"
             transform="matrix(-0.40673664,-0.91354546,0.91354546,-0.40673664,0,0)"
             id="rect4483"
             style="fill:#000000;fill-opacity:1;stroke:none" />
          <rect
             width="4"
             height="7.9999933"
             x="-514.95245"
             y="65.787758"
             transform="matrix(-0.30901699,-0.95105652,0.95105652,-0.30901699,0,0)"
             id="rect4485"
             style="fill:#000000;fill-opacity:1;stroke:none" />
          <rect
             width="4"
             height="7.9999933"
             x="-493.03592"
             y="118.40456"
             transform="matrix(-0.20791169,-0.9781476,0.9781476,-0.20791169,0,0)"
             id="rect4487"
             style="fill:#000000;fill-opacity:1;stroke:none" />
          <rect
             width="4"
             height="7.9999933"
             x="-493.03592"
             y="118.40456"
             transform="matrix(-0.20791169,-0.9781476,0.9781476,-0.20791169,0,0)"
             id="rect4489"
             style="fill:#000000;fill-opacity:1;stroke:none" />
        </g>
        <rect
           width="4"
           height="7.9999933"
           x="-531.24896"
           y="11.168299"
           transform="matrix(-0.40673664,-0.91354546,0.91354546,-0.40673664,0,0)"
           id="rect4491"
           style="fill:#000000;fill-opacity:1;stroke:none" />
        <rect
           width="4"
           height="7.9999933"
           x="-514.95245"
           y="65.787758"
           transform="matrix(-0.30901699,-0.95105652,0.95105652,-0.30901699,0,0)"
           id="rect4493"
           style="fill:#000000;fill-opacity:1;stroke:none" />
        <rect
           width="4"
           height="7.9999933"
           x="-493.03592"
           y="118.40456"
           transform="matrix(-0.20791169,-0.9781476,0.9781476,-0.20791169,0,0)"
           id="rect4495"
           style="fill:#000000;fill-opacity:1;stroke:none" />
        <rect
           width="4"
           height="7.9999933"
           x="-493.03592"
           y="118.40456"
           transform="matrix(-0.20791169,-0.9781476,0.9781476,-0.20791169,0,0)"
           id="rect4497"
           style="fill:#000000;fill-opacity:1;stroke:none" />
      </g>
      <g
         transform="matrix(-0.80901698,-0.58778525,0.58778525,-0.80901698,347.68305,975.69356)"
         id="gMinor10"
         style="fill:#000000">
        <g
           id="g4501"
           style="fill:#000000">
          <rect
             width="4"
             height="7.9999933"
             x="-531.24896"
             y="11.168299"
             transform="matrix(-0.40673664,-0.91354546,0.91354546,-0.40673664,0,0)"
             id="rect4503"
             style="fill:#000000;fill-opacity:1;stroke:none" />
          <rect
             width="4"
             height="7.9999933"
             x="-514.95245"
             y="65.787758"
             transform="matrix(-0.30901699,-0.95105652,0.95105652,-0.30901699,0,0)"
             id="rect4505"
             style="fill:#000000;fill-opacity:1;stroke:none" />
          <rect
             width="4"
             height="7.9999933"
             x="-493.03592"
             y="118.40456"
             transform="matrix(-0.20791169,-0.9781476,0.9781476,-0.20791169,0,0)"
             id="rect4507"
             style="fill:#000000;fill-opacity:1;stroke:none" />
          <rect
             width="4"
             height="7.9999933"
             x="-493.03592"
             y="118.40456"
             transform="matrix(-0.20791169,-0.9781476,0.9781476,-0.20791169,0,0)"
             id="rect4509"
             style="fill:#000000;fill-opacity:1;stroke:none" />
        </g>
        <rect
           width="4"
           height="7.9999933"
           x="-531.24896"
           y="11.168299"
           transform="matrix(-0.40673664,-0.91354546,0.91354546,-0.40673664,0,0)"
           id="rect4511"
           style="fill:#000000;fill-opacity:1;stroke:none" />
        <rect
           width="4"
           height="7.9999933"
           x="-514.95245"
           y="65.787758"
           transform="matrix(-0.30901699,-0.95105652,0.95105652,-0.30901699,0,0)"
           id="rect4513"
           style="fill:#000000;fill-opacity:1;stroke:none" />
        <rect
           width="4"
           height="7.9999933"
           x="-493.03592"
           y="118.40456"
           transform="matrix(-0.20791169,-0.9781476,0.9781476,-0.20791169,0,0)"
           id="rect4515"
           style="fill:#000000;fill-opacity:1;stroke:none" />
        <rect
           width="4"
           height="7.9999933"
           x="-493.03592"
           y="118.40456"
           transform="matrix(-0.20791169,-0.9781476,0.9781476,-0.20791169,0,0)"
           id="rect4517"
           style="fill:#000000;fill-opacity:1;stroke:none" />
      </g>
    </g>
    <g
       style="fill:#000000"
       wp:type="scaleText"
       id="gScaleText"
       transform="translate(-162.35109,-263.34553)">
      <text
         x="-539.73376"
         y="-50.862988"
         transform="matrix(-0.5,-0.8660254,0.8660254,-0.5,0,0)"
         id="text0"
         xml:space="preserve"
         style="font-size:24px;font-style:normal;font-variant:normal;font-weight:normal;font-stretch:normal;line-height:125%;letter-spacing:0px;word-spacing:0px;fill:#000000;fill-opacity:1;stroke:none;font-family:Tahoma;-inkscape-font-specification:Tahoma"
         sodipodi:linespacing="125%"><tspan
           x="-539.73376"
           y="-50.862988"
           id="tspan4185"
           style="font-size:18px;text-align:center;text-anchor:middle;fill:#000000">0</tspan></text>
      <text
         x="-463.7298"
         y="162.4335"
         transform="matrix(-0.10452847,-0.9945219,0.9945219,-0.10452847,0,0)"
         id="text1"
         xml:space="preserve"
         style="font-size:24px;font-style:normal;font-variant:normal;font-weight:normal;font-stretch:normal;line-height:125%;letter-spacing:0px;word-spacing:0px;fill:#000000;fill-opacity:1;stroke:none;font-family:Tahoma;-inkscape-font-specification:Tahoma"
         sodipodi:linespacing="125%"><tspan
           x="-463.7298"
           y="162.4335"
           id="tspan4189"
           style="font-size:18px;text-align:center;text-anchor:middle;fill:#000000">10</tspan></text>
      <text
         x="-307.54123"
         y="326.37595"
         transform="matrix(0.30901699,-0.95105652,0.95105652,0.30901699,0,0)"
         id="text2"
         xml:space="preserve"
         style="font-size:24px;font-style:normal;font-variant:normal;font-weight:normal;font-stretch:normal;line-height:125%;letter-spacing:0px;word-spacing:0px;fill:#000000;fill-opacity:1;stroke:none;font-family:Tahoma;-inkscape-font-specification:Tahoma"
         sodipodi:linespacing="125%"><tspan
           x="-307.54123"
           y="326.37595"
           id="tspan4193"
           style="font-size:18px;text-align:center;text-anchor:middle;fill:#000000">20</tspan></text>
      <text
         x="-98.174469"
         y="412.61722"
         transform="matrix(0.6691306,-0.74314483,0.74314483,0.6691306,0,0)"
         id="text3"
         xml:space="preserve"
         style="font-size:24px;font-style:normal;font-variant:normal;font-weight:normal;font-stretch:normal;line-height:125%;letter-spacing:0px;word-spacing:0px;fill:#000000;fill-opacity:1;stroke:none;font-family:Tahoma;-inkscape-font-specification:Tahoma"
         sodipodi:linespacing="125%"><tspan
           x="-98.174469"
           y="412.61722"
           id="tspan4197"
           style="font-size:18px;text-align:center;text-anchor:middle;fill:#000000">30</tspan></text>
      <text
         x="128.16907"
         y="406.24539"
         transform="matrix(0.91354545,-0.40673665,0.40673665,0.91354545,0,0)"
         id="text4"
         xml:space="preserve"
         style="font-size:24px;font-style:normal;font-variant:normal;font-weight:normal;font-stretch:normal;line-height:125%;letter-spacing:0px;word-spacing:0px;fill:#000000;fill-opacity:1;stroke:none;font-family:Tahoma;-inkscape-font-specification:Tahoma"
         sodipodi:linespacing="125%"><tspan
           x="128.16907"
           y="406.24539"
           id="tspan4201"
           style="font-size:18px;text-align:center;text-anchor:middle;fill:#000000">40</tspan></text>
      <text
         x="332.35254"
         y="308.36224"
         id="text5"
         xml:space="preserve"
         style="font-size:24px;font-style:normal;font-variant:normal;font-weight:normal;font-stretch:normal;line-height:125%;letter-spacing:0px;word-spacing:0px;fill:#000000;fill-opacity:1;stroke:none;font-family:Tahoma;-inkscape-font-specification:Tahoma"
         sodipodi:linespacing="125%"><tspan
           x="332.35254"
           y="308.36224"
           id="tspan4205"
           style="font-size:18px;text-align:center;text-anchor:middle;fill:#000000">50</tspan></text>
      <text
         x="479.07074"
         y="135.89264"
         transform="matrix(0.91354546,0.40673664,-0.40673664,0.91354546,0,0)"
         id="text6"
         xml:space="preserve"
         style="font-size:24px;font-style:normal;font-variant:normal;font-weight:normal;font-stretch:normal;line-height:125%;letter-spacing:0px;word-spacing:0px;fill:#000000;fill-opacity:1;stroke:none;font-family:Tahoma;-inkscape-font-specification:Tahoma"
         sodipodi:linespacing="125%"><tspan
           x="479.07074"
           y="135.89264"
           id="tspan4209"
           style="font-size:18px;text-align:center;text-anchor:middle;fill:#000000">60</tspan></text>
      <text
         x="542.95477"
         y="-81.341858"
         transform="matrix(0.66913061,0.74314482,-0.74314482,0.66913061,0,0)"
         id="text7"
         xml:space="preserve"
         style="font-size:24px;font-style:normal;font-variant:normal;font-weight:normal;font-stretch:normal;line-height:125%;letter-spacing:0px;word-spacing:0px;fill:#000000;fill-opacity:1;stroke:none;font-family:Tahoma;-inkscape-font-specification:Tahoma"
         sodipodi:linespacing="125%"><tspan
           x="542.95477"
           y="-81.341858"
           id="tspan4213"
           style="font-size:18px;text-align:center;text-anchor:middle;fill:#000000">70</tspan></text>
      <text
         x="512.9585"
         y="-305.77942"
         transform="matrix(0.309017,0.95105651,-0.95105651,0.309017,0,0)"
         id="text8"
         xml:space="preserve"
         style="font-size:24px;font-style:normal;font-variant:normal;font-weight:normal;font-stretch:normal;line-height:125%;letter-spacing:0px;word-spacing:0px;fill:#000000;fill-opacity:1;stroke:none;font-family:Tahoma;-inkscape-font-specification:Tahoma"
         sodipodi:linespacing="125%"><tspan
           x="512.9585"
           y="-305.77942"
           id="tspan4217"
           style="font-size:18px;text-align:center;text-anchor:middle;fill:#000000">80</tspan></text>
      <text
         x="394.26855"
         y="-498.61276"
         transform="matrix(-0.10452846,0.9945219,-0.9945219,-0.10452846,0,0)"
         id="text9"
         xml:space="preserve"
         style="font-size:24px;font-style:normal;font-variant:normal;font-weight:normal;font-stretch:normal;line-height:125%;letter-spacing:0px;word-spacing:0px;fill:#000000;fill-opacity:1;stroke:none;font-family:Tahoma;-inkscape-font-specification:Tahoma"
         sodipodi:linespacing="125%"><tspan
           x="394.26855"
           y="-498.61276"
           id="tspan4221"
           style="font-size:18px;text-align:center;text-anchor:middle;fill:#000000">90</tspan></text>
      <text
         x="207.40753"
         y="-626.49927"
         transform="matrix(-0.5,0.86602541,-0.86602541,-0.5,0,0)"
         id="text10"
         xml:space="preserve"
         style="font-size:24px;font-style:normal;font-variant:normal;font-weight:normal;font-stretch:normal;line-height:125%;letter-spacing:0px;word-spacing:0px;fill:#000000;fill-opacity:1;stroke:none;font-family:Tahoma;-inkscape-font-specification:Tahoma"
         sodipodi:linespacing="125%"><tspan
           x="207.40753"
           y="-626.49927"
           id="tspan4225"
           style="font-size:18px;text-align:center;text-anchor:middle;fill:#000000">100</tspan></text>
    </g>
    <text
       wp:Type="value"
       x="169.67296"
       y="250.34322"
       id="textValue"
       xml:space="preserve"
       style="font-size:18px;font-style:normal;font-variant:normal;font-weight:normal;font-stretch:normal;text-align:center;line-height:125%;letter-spacing:0px;word-spacing:0px;text-anchor:middle;fill:#000000;fill-opacity:1;stroke:none;font-family:Tahoma;-inkscape-font-specification:Tahoma"
       sodipodi:linespacing="125%"><tspan
         style="fill:#000000"
         x="169.67296"
         y="250.34322"
         id="tspanValue"></tspan></text>
    <text
       x="170.2838"
       y="270.3432"
       id="textLabel"
       xml:space="preserve"
       style="font-size:18px;font-style:normal;font-variant:normal;font-weight:normal;font-stretch:normal;text-align:center;line-height:125%;letter-spacing:0px;word-spacing:0px;text-anchor:middle;fill:#000000;fill-opacity:1;stroke:none;font-family:Tahoma;-inkscape-font-specification:Tahoma"
       sodipodi:linespacing="125%"><tspan
         style="fill:#000000"
         x="170.2838"
         y="270.3432"
         id="tspanLabel"></tspan></text>
    <circle
       sodipodi:ry="17.5"
       sodipodi:rx="17.5"
       sodipodi:cy="171"
       sodipodi:cx="171"
       d="m 188.5,171 c 0,9.66498 -7.83502,17.5 -17.5,17.5 -9.66498,0 -17.5,-7.83502 -17.5,-17.5 0,-9.66498 7.83502,-17.5 17.5,-17.5 9.66498,0 17.5,7.83502 17.5,17.5 z"
       style="fill:#666666;fill-opacity:1;filter:url(#filter5545-0)"
       id="CenterShadow"
       r="17.5"
       cy="171"
       cx="171" />
    <path transform="rotate(240 171 171)"
       wp:type="needle"
       inkscape:connector-curvature="0"
       d="m 79.732755,224.57518 -1.999956,-3.46406 89.432931,-55.09795 1.30543,2.2611 3.6944,6.39896 z"
       id="Needle"
       style="fill:#008080;fill-opacity:1;stroke:none"
       inkscape:transform-center-x="44.586402"
       inkscape:transform-center-y="25.079796"
       sodipodi:nodetypes="cccccc" />
    <circle
       cx="170"
       cy="170"
       r="17.5"
       id="Center"
       style="fill:url(#linearGradient4926);fill-opacity:1"
       sodipodi:cx="170"
       sodipodi:cy="170"
       sodipodi:rx="17.5"
       sodipodi:ry="17.5"
       d="m 187.5,170 c 0,9.66498 -7.83502,17.5 -17.5,17.5 -9.66498,0 -17.5,-7.83502 -17.5,-17.5 0,-9.66498 7.83502,-17.5 17.5,-17.5 9.66498,0 17.5,7.83502 17.5,17.5 z"
       wp:type="centerRotation" />
  </g>
</svg>
