<svg width="100" height="100" xmlns="http://www.w3.org/2000/svg">
<g id="template">
   <line x1="5" x2="5" y1="5" y2="15" stroke="black" stroke-width="0.5"/>
   <line x1="5" x2="8" y1="5" y2="8" stroke="black" stroke-width="0.5"/>
   <line x1="5" x2="2" y1="5" y2="8" stroke="black" stroke-width="0.5"/>
   <text x="6" y="13" fill="black" font-size="5">N</text>

   <line x1="10" x2="10" y1="0" y2="100" stroke="rgb(200,200,200)" stroke-width="0.5"/>
   <line x1="20" x2="20" y1="0" y2="100" stroke="rgb(200,200,200)" stroke-width="0.5"/>
   <line x1="30" x2="30" y1="0" y2="100" stroke="rgb(200,200,200)" stroke-width="0.5"/>
   <line x1="40" x2="40" y1="0" y2="100" stroke="rgb(200,200,200)" stroke-width="0.5"/>
   <line x1="50" x2="50" y1="0" y2="100" stroke="rgb(200,200,200)" stroke-width="0.5"/>
   <line x1="60" x2="60" y1="0" y2="100" stroke="rgb(200,200,200)" stroke-width="0.5"/>
   <line x1="70" x2="70" y1="0" y2="100" stroke="rgb(200,200,200)" stroke-width="0.5"/>
   <line x1="80" x2="80" y1="0" y2="100" stroke="rgb(200,200,200)" stroke-width="0.5"/>
   <line x1="90" x2="90" y1="0" y2="100" stroke="rgb(200,200,200)" stroke-width="0.5"/>
   <line x1="0" x2="100" y1="10" y2="10" stroke="rgb(200,200,200)" stroke-width="0.5"/>
   <line x1="0" x2="100" y1="20" y2="20" stroke="rgb(200,200,200)" stroke-width="0.5"/>
   <line x1="0" x2="100" y1="30" y2="30" stroke="rgb(200,200,200)" stroke-width="0.5"/>
   <line x1="0" x2="100" y1="40" y2="40" stroke="rgb(200,200,200)" stroke-width="0.5"/>
   <line x1="0" x2="100" y1="50" y2="50" stroke="rgb(200,200,200)" stroke-width="0.5"/>
   <line x1="0" x2="100" y1="60" y2="60" stroke="rgb(200,200,200)" stroke-width="0.5"/>
   <line x1="0" x2="100" y1="70" y2="70" stroke="rgb(200,200,200)" stroke-width="0.5"/>
   <line x1="0" x2="100" y1="80" y2="80" stroke="rgb(200,200,200)" stroke-width="0.5"/>
   <line x1="0" x2="100" y1="90" y2="90" stroke="rgb(200,200,200)" stroke-width="0.5"/>
   <text x="50" y="5" fill="rgb(200,200,200)" font-size="5">50</text>
   <text x="100" y="5" fill="rgb(200,200,200)" font-size="5">100</text>
   <text x="0" y="50" fill="rgb(200,200,200)" font-size="5">50</text>
   <text x="0" y="100" fill="rgb(200,200,200)" font-size="5">100</text>
	 
	 
   <rect x="0" y="0" width="100" height="100" fill="transparent" stroke="black" stroke-width="0.5" />
</g>
	 
   <rect id="bcn" name="BCNb0" x="55" y="25" width="10" height="10" style="fill:rgb(0,0,255);stroke-width:0" />
   <text x="55" y="25" fill="blue" font-size="5">BCNb0</text>
   <rect id="bcn"  name="BCNg0" x="72" y="57" width="10" height="10" style="fill:rgb(0,255,0);stroke-width:0" />
   <text x="72" y="57" fill="green" font-size="5">BCNg0</text>
   <rect id="tgt0" x="23" y="78" width="10" height="10" fill="yellow" stroke-width="0" />
   <text x="23" y="78" fill="red" font-size="5">tgt0</text>

<g id="obstacles">	 
  <polygon points="30 30 50 50 50 60 30 60 30 30"
      stroke="green" fill="grey" stroke-width="0"/>

</g>

</svg>